<?xml version="1.0" encoding="utf-8"?>
<svg version="1.1" width="300px" height="300px" viewBox="0 0 300 300" xmlns="http://www.w3.org/2000/svg" xmlns:bx="https://boxy-svg.com">
  <desc>Created with Fabric.js 1.7.22</desc>
  <g transform="matrix(0.86669, 0.075825, -0.075825, 0.86669, 156.149994, 139.96199)" style="" bx:origin="0.482543 0.501445">
    <g style="stroke: none; stroke-width: 0; stroke-dasharray: none; stroke-linecap: butt; stroke-linejoin: miter; stroke-miterlimit: 10; fill: none; fill-rule: nonzero; opacity: 1;" transform="translate(-144.89999999999998 -144.90000000000003) scale(3.22 3.22)">
      <path d="M 90.001 32.594 L 90.001 83.079 C 90.001 86.183 87.477 88.707 84.373 88.707 L 28.206 88.707 C 28.416 88.397 28.576 88.051 28.624 87.675 C 28.69 87.163 28.543 86.367 28.326 85.707 L 84.372 85.707 C 85.821 85.707 87 84.528 87 83.079 L 87 67.751 L 73.388 67.751 C 68.791 67.751 65.051 64.011 65.051 59.414 L 65.051 56.259 C 65.051 51.662 68.791 47.922 73.388 47.922 L 87.001 47.922 L 87.001 32.594 C 87.001 31.146 85.822 29.967 84.373 29.967 L 5.628 29.967 C 4.179 29.967 3 31.145 3 32.594 L 3 83.079 C 3 84.528 4.179 85.707 5.628 85.707 L 9.076 85.707 C 8.879 86.012 8.802 86.355 8.789 86.703 C 8.768 87.292 9.032 88.049 9.551 88.707 L 5.628 88.707 C 2.525 88.707 0 86.183 0 83.079 L 0 32.594 C 0 29.491 2.525 26.966 5.628 26.966 L 19.176 26.966 C 19.725 12.717 31.482 1.293 45.864 1.293 C 60.245 1.293 72.003 12.718 72.553 26.966 L 84.373 26.966 C 87.476 26.966 90 29.491 90.001 32.594 Z M 22.176 26.966 L 35.87 26.966 L 35.87 22.105 C 35.87 19.059 38.087 16.581 40.814 16.581 L 44.365 16.581 L 44.365 13.999 C 44.365 13.17 45.037 12.499 45.865 12.499 C 46.693 12.499 47.365 13.17 47.365 13.999 L 47.365 16.581 L 50.916 16.581 C 53.641 16.581 55.859 19.059 55.859 22.105 C 55.859 22.934 55.187 23.605 54.359 23.605 C 53.531 23.605 52.859 22.934 52.859 22.105 C 52.859 20.737 51.97 19.581 50.916 19.581 L 40.813 19.581 C 39.76 19.581 38.869 20.737 38.869 22.105 L 38.869 26.966 L 69.552 26.966 C 69.005 14.372 58.591 4.293 45.864 4.293 C 33.137 4.293 22.723 14.372 22.176 26.966 Z M 87 50.922 L 73.388 50.922 C 70.446 50.922 68.051 53.317 68.051 56.259 L 68.051 59.414 C 68.051 62.356 70.446 64.751 73.388 64.751 L 87 64.751 Z" style="stroke: none; stroke-width: 1; stroke-dasharray: none; stroke-linecap: butt; stroke-linejoin: miter; stroke-miterlimit: 10; fill: rgb(0,0,0); fill-rule: nonzero; opacity: 1;" transform=" matrix(1 0 0 1 0 0) " stroke-linecap="round"/>
      <path d="M 79.987 59.337 h -5.641 c -0.828 0 -1.5 -0.672 -1.5 -1.5 s 0.672 -1.5 1.5 -1.5 h 5.641 c 0.828 0 1.5 0.672 1.5 1.5 S 80.815 59.337 79.987 59.337 z" style="stroke: none; stroke-width: 1; stroke-dasharray: none; stroke-linecap: butt; stroke-linejoin: miter; stroke-miterlimit: 10; fill: rgb(0,0,0); fill-rule: nonzero; opacity: 1;" transform=" matrix(1 0 0 1 0 0) " stroke-linecap="round"/>
      <path d="M 8.943 38.981 h -1 c -0.829 0 -1.5 -0.671 -1.5 -1.5 s 0.671 -1.5 1.5 -1.5 h 1 c 0.829 0 1.5 0.671 1.5 1.5 S 9.771 38.981 8.943 38.981 z" style="stroke: none; stroke-width: 1; stroke-dasharray: none; stroke-linecap: butt; stroke-linejoin: miter; stroke-miterlimit: 10; fill: rgb(0,0,0); fill-rule: nonzero; opacity: 1;" transform=" matrix(1 0 0 1 0 0) " stroke-linecap="round"/>
      <path d="M 76.009 38.981 h -1.916 c -0.828 0 -1.5 -0.671 -1.5 -1.5 s 0.672 -1.5 1.5 -1.5 h 1.916 c 0.828 0 1.5 0.671 1.5 1.5 S 76.837 38.981 76.009 38.981 z M 69.303 38.981 h -1.916 c -0.828 0 -1.5 -0.671 -1.5 -1.5 s 0.672 -1.5 1.5 -1.5 h 1.916 c 0.828 0 1.5 0.671 1.5 1.5 S 70.131 38.981 69.303 38.981 z M 62.596 38.981 H 60.68 c -0.828 0 -1.5 -0.671 -1.5 -1.5 s 0.672 -1.5 1.5 -1.5 h 1.916 c 0.828 0 1.5 0.671 1.5 1.5 S 63.424 38.981 62.596 38.981 z M 55.889 38.981 h -1.916 c -0.828 0 -1.5 -0.671 -1.5 -1.5 s 0.672 -1.5 1.5 -1.5 h 1.916 c 0.828 0 1.5 0.671 1.5 1.5 S 56.717 38.981 55.889 38.981 z M 49.183 38.981 h -1.916 c -0.828 0 -1.5 -0.671 -1.5 -1.5 s 0.672 -1.5 1.5 -1.5 h 1.916 c 0.828 0 1.5 0.671 1.5 1.5 S 50.011 38.981 49.183 38.981 z M 42.476 38.981 H 40.56 c -0.829 0 -1.5 -0.671 -1.5 -1.5 s 0.671 -1.5 1.5 -1.5 h 1.916 c 0.829 0 1.5 0.671 1.5 1.5 S 43.305 38.981 42.476 38.981 z M 35.77 38.981 h -1.916 c -0.829 0 -1.5 -0.671 -1.5 -1.5 s 0.671 -1.5 1.5 -1.5 h 1.916 c 0.829 0 1.5 0.671 1.5 1.5 S 36.598 38.981 35.77 38.981 z M 29.063 38.981 h -1.916 c -0.829 0 -1.5 -0.671 -1.5 -1.5 s 0.671 -1.5 1.5 -1.5 h 1.916 c 0.829 0 1.5 0.671 1.5 1.5 S 29.892 38.981 29.063 38.981 z M 22.356 38.981 H 20.44 c -0.829 0 -1.5 -0.671 -1.5 -1.5 s 0.671 -1.5 1.5 -1.5 h 1.917 c 0.829 0 1.5 0.671 1.5 1.5 S 23.185 38.981 22.356 38.981 z M 15.649 38.981 h -1.916 c -0.829 0 -1.5 -0.671 -1.5 -1.5 s 0.671 -1.5 1.5 -1.5 h 1.916 c 0.829 0 1.5 0.671 1.5 1.5 S 16.478 38.981 15.649 38.981 z" style="stroke: none; stroke-width: 1; stroke-dasharray: none; stroke-linecap: butt; stroke-linejoin: miter; stroke-miterlimit: 10; fill: rgb(0,0,0); fill-rule: nonzero; opacity: 1;" transform=" matrix(1 0 0 1 0 0) " stroke-linecap="round"/>
      <path d="M 81.8 38.981 h -1 c -0.828 0 -1.5 -0.671 -1.5 -1.5 s 0.672 -1.5 1.5 -1.5 h 1 c 0.828 0 1.5 0.671 1.5 1.5 S 82.628 38.981 81.8 38.981 z" style="stroke: none; stroke-width: 1; stroke-dasharray: none; stroke-linecap: butt; stroke-linejoin: miter; stroke-miterlimit: 10; fill: rgb(0,0,0); fill-rule: nonzero; opacity: 1;" transform=" matrix(1 0 0 1 0 0) " stroke-linecap="round"/>
      <circle style="fill: rgb(0, 0, 0); stroke-width: 1px;" transform="matrix(0.996195, -0.087151, 0.087153, 0.996193, -400.818978, -225.856383)" cx="390.898" cy="347.219" r="2.499"/>
    </g>
    <circle transform="matrix(0.717647, -0.062786, 0.064244, 0.734313, -473.493225, -222.624191)" style="stroke-miterlimit: 10; fill: none; stroke: rgb(0, 0, 0); stroke-width: 18.927px; pointer-events: none;" cx="496.285" cy="526.123" r="41.622"/>
  </g>
</svg>