<?xml version="1.0" encoding="utf-8"?>
<svg viewBox="0 0 200 200" width="200" height="200" xmlns="http://www.w3.org/2000/svg">
  <defs>
    <style type="text/css">
	.st0{fill:#FFFFFF;}
	.st1{fill-rule:evenodd;clip-rule:evenodd;fill:#FFFFFF;}
	.st2{enable-background:new    ;}
</style>
  </defs>
  <g id="CryptoRoyaleLogo">
    <g id="roycon">
      <path class="st0" d="M191.1,271.2c-3.9,3.9-3.9,10.2,0,14.1l60.1,60.1c3.9,3.9,10.2,3.9,14.1,0l60.1-60.1c3.9-3.9,3.9-10.2,0-14.1 l-60.1-60.1c-3.9-3.9-10.2-3.9-14.1,0L191.1,271.2z" style="fill: rgb(7, 0, 0);"/>
      <path class="st1" d="M516,258c0,142.5-115.5,258-258,258S0,400.5,0,258S115.5,0,258,0S516,115.5,516,258z M247.3,108.9 L247.3,108.9c2.9-2.7,5.1-4.7,10.2-4.9c5.1,0.1,7.3,2.2,10.2,4.9l0,0c0.6,0.5,1.1,1.1,1.8,1.6c4,3.5,90.5,89.5,90.5,89.5l65.5-24 c5.3-1.7,16.1-1.5,16.5,8.5S422.5,316,412,360c-2.6,11.1-9.5,18.3-22,26c-22,13.6-46.1,17.9-55.7,19.7c-0.7,0.1-1.3,0.2-1.8,0.3 c-8,1.5-58,5-75.5,5s-66.5-3.5-74.5-5c-0.5-0.1-1.1-0.2-1.8-0.3c-9.6-1.7-33.7-6.1-55.7-19.7c-12.5-7.7-19.4-14.9-22-26 c-10.5-44-30.4-165.5-30-175.5s11.2-10.2,16.5-8.5l65.5,24c0,0,86.5-86,90.5-89.5C246.1,109.9,246.7,109.4,247.3,108.9z" style="fill: rgb(7, 0, 0);"/>
    </g>
  </g>
</svg>
